<svg width="192" height="57" viewBox="0 0 192 57" fill="none" xmlns="http://www.w3.org/2000/svg">
<ellipse cx="26.5" cy="28.5" rx="26.5" ry="28.5" fill="#508CF3"/>
<path d="M9.88434 6.36005C10.4712 6.7538 10.9935 7.09389 11.4512 7.38032C11.909 7.66674 12.2882 7.91034 12.5887 8.11111C12.9465 8.34302 13.2505 8.53643 13.5008 8.69132C13.7511 8.84622 14.0621 9.0249 14.4337 9.22737C14.7412 9.41341 15.1307 9.63492 15.6024 9.8919C16.074 10.1489 16.6314 10.4526 17.2746 10.803C16.763 10.7833 16.3513 10.7995 16.0394 10.8516C15.7417 10.9115 15.5045 10.9765 15.3278 11.0468C15.1086 11.1309 14.9534 11.2314 14.8624 11.3483C14.7927 11.4583 14.7276 11.6727 14.6673 11.9914C14.607 12.3101 14.5579 12.6811 14.52 13.1046C14.4891 13.5133 14.4764 13.9597 14.4819 14.4438C14.4873 14.9279 14.5173 15.379 14.5717 15.7972C14.6474 16.2085 14.7473 16.5683 14.8715 16.8765C14.9958 17.1847 15.1614 17.386 15.3684 17.4803C15.5754 17.5746 15.8635 17.6113 16.2326 17.5903C16.6086 17.5547 17.0125 17.4787 17.4445 17.3625C17.8907 17.254 18.3402 17.1196 18.7929 16.9592C19.2456 16.7988 19.6591 16.6263 20.0335 16.4417C20.4221 16.2649 20.7468 16.0903 21.0077 15.9178C21.2897 15.7384 21.4585 15.5899 21.514 15.4721C21.5691 15.317 21.5917 15.1166 21.5818 14.8706C21.5723 14.6619 21.5196 14.3927 21.4235 14.0628C21.3344 13.7182 21.1806 13.3013 20.962 12.8121C22.1131 13.4948 22.9603 13.9842 23.5034 14.2801L24.2966 14.7123L25.197 15.2029C25.5257 15.382 25.9616 15.6195 26.5048 15.9154C27.0548 16.1966 27.7441 16.5444 28.5726 16.9588C27.8349 17.0379 27.1859 17.1192 26.6258 17.2026C26.0869 17.279 25.626 17.3424 25.243 17.3928C24.7964 17.464 24.4208 17.5369 24.1162 17.6115C23.7762 17.6853 23.2877 17.8262 22.6509 18.0343C22.0989 18.2147 21.3631 18.4614 20.4433 18.7744C19.5305 19.0727 18.3703 19.4767 16.9627 19.9865C16.3277 20.9913 15.8328 21.8133 15.4778 22.4525C15.1371 23.0995 14.8765 23.6144 14.6962 23.9973C14.4881 24.439 14.3606 24.7859 14.3138 25.0379C14.302 25.2535 14.3264 25.5258 14.3869 25.8549C14.4327 26.1389 14.5184 26.4908 14.6438 26.9108C14.7836 27.3385 14.9952 27.8424 15.2788 28.4224C14.8626 28.0477 14.4612 27.7179 14.0744 27.4332C13.702 27.1562 13.3655 26.9174 13.065 26.7166C12.7142 26.47 12.3887 26.2649 12.0886 26.1014C11.7741 25.93 11.3956 25.7423 10.953 25.5381C10.5675 25.3651 10.1071 25.1605 9.57176 24.9243C9.03643 24.6882 8.40494 24.4274 7.6773 24.1419C8.15252 24.0863 8.56342 23.9956 8.91001 23.8699C9.2566 23.7442 9.54276 23.6133 9.7685 23.4773C10.0367 23.3273 10.2551 23.1688 10.4236 23.0016C10.5918 22.7971 10.7942 22.4818 11.0309 22.0557C11.2398 21.6884 11.4791 21.1805 11.7487 20.5317C12.0327 19.8908 12.3678 19.065 12.7542 18.0543C12.5625 16.1735 12.3858 14.6803 12.2242 13.5745C12.0695 12.4541 11.9427 11.5986 11.8437 11.008C11.7153 10.3274 11.6106 9.86335 11.5297 9.61572C11.4423 9.42006 11.3187 9.16769 11.159 8.85861C11.0352 8.58763 10.8681 8.25604 10.6577 7.86386C10.4399 7.44917 10.1822 6.9479 9.88434 6.36005Z" fill="black"/>
<path d="M29.2104 15.5836C29.7613 15.6824 30.2478 15.7547 30.6699 15.8005C31.1082 15.8469 31.4733 15.891 31.7653 15.9327C32.106 15.976 32.3984 16.0015 32.6424 16.0092L33.5941 16.0392C34.2286 16.0591 35.2785 16.0678 36.744 16.0651C36.383 16.1677 36.0776 16.3209 35.8278 16.5247C35.5943 16.7291 35.4012 16.9428 35.2486 17.166C35.0626 17.4207 34.9251 17.685 34.8363 17.9591C34.7293 18.2977 34.6275 18.7504 34.5306 19.3173C34.4356 19.8191 34.3363 20.4755 34.2328 21.2864C34.1456 22.0979 34.0528 23.1127 33.9545 24.3309C34.6758 23.5557 35.3051 22.8672 35.8425 22.2653C36.3962 21.6639 36.8746 21.1335 37.2779 20.6739C37.6812 20.2144 38.0176 19.8179 38.2872 19.4844C38.5731 19.1515 38.8088 18.8658 38.9944 18.6274C39.4324 18.0875 39.6866 17.721 39.757 17.5278C39.7764 17.4144 39.772 17.2759 39.7439 17.1121C39.7149 16.9809 39.6703 16.8248 39.6101 16.6438C39.5503 16.4465 39.4585 16.232 39.3345 16.0001C39.9844 16.0531 40.5368 16.0949 40.9919 16.1255C41.4632 16.1567 41.8532 16.1852 42.1619 16.2112C42.5193 16.2388 42.8119 16.2561 43.0397 16.2633L44.0645 16.2956C44.4387 16.3073 44.9267 16.3227 45.5287 16.3417C46.131 16.3443 46.8879 16.3519 47.7994 16.3643C47.1935 16.4918 46.6188 16.6691 46.0753 16.8962C45.5318 17.1234 45.0455 17.3442 44.6163 17.5587C44.1207 17.8199 43.6575 18.0903 43.2265 18.3698C42.7947 18.6819 42.3125 19.0494 41.78 19.4723C41.3306 19.8327 40.8055 20.2802 40.2048 20.815C39.6045 21.3334 38.953 21.9398 38.2503 22.6342C38.9434 24.089 39.5457 25.2886 40.0573 26.2329C40.5856 27.1614 41.0293 27.9082 41.3884 28.4731C41.7937 29.1372 42.1381 29.6447 42.4216 29.9956C42.706 30.314 43.039 30.642 43.4206 30.9797C43.7384 31.2665 44.1367 31.5885 44.6154 31.9455C45.0946 32.2863 45.6472 32.6212 46.2733 32.9503L39.3094 33.073C39.4105 32.9459 39.4717 32.7932 39.4928 32.6147C39.5307 32.4205 39.5518 32.242 39.5563 32.0793C39.5611 31.9003 39.5502 31.7046 39.5234 31.4921C39.4654 31.2297 39.3061 30.8013 39.0455 30.2069C38.8315 29.6953 38.501 28.9766 38.054 28.0506C37.6075 27.1083 36.99 25.8676 36.2015 24.3284L34.0682 26.4351C33.9727 26.9532 33.9192 27.4237 33.9077 27.8468C33.8962 28.2698 33.9029 28.6201 33.9279 28.8977C33.9674 29.2409 34.0245 29.5358 34.0992 29.7824C34.1902 30.0296 34.3209 30.3105 34.4915 30.6253C34.6303 30.9065 34.8167 31.238 35.0505 31.6199C35.2844 32.0018 35.5822 32.4264 35.9439 32.8938C35.5724 32.7844 35.2 32.7075 34.8267 32.6632C34.4539 32.6026 34.1132 32.5593 33.8045 32.5333C33.4471 32.5058 33.1052 32.5031 32.779 32.5254C32.4365 32.5472 32.0366 32.5835 31.5793 32.6342C31.1871 32.687 30.705 32.7532 30.1329 32.8329C29.5609 32.9126 28.9068 33.0142 28.1708 33.1375C28.5345 32.9373 28.8253 32.7185 29.0435 32.4811C29.2616 32.2437 29.4388 32.0132 29.5752 31.7895C29.7287 31.5338 29.8332 31.2847 29.8886 31.0421C29.9269 30.8317 29.9637 30.3769 29.999 29.6778C30.0506 28.9792 30.089 28.1662 30.1143 27.2388C30.1562 26.2957 30.1832 25.3032 30.1953 24.2614C30.2074 23.2196 30.2177 22.2429 30.2262 21.3313C30.2348 20.4196 30.2314 19.646 30.2161 19.0105C30.2176 18.3592 30.2122 17.96 30.1999 17.8131C30.1573 17.5838 30.0988 17.3377 30.0246 17.0748C29.9495 16.8444 29.842 16.6049 29.7022 16.3563C29.5792 16.0919 29.4152 15.8343 29.2104 15.5836Z" fill="black"/>
<path d="M14.4307 35.556C14.7723 35.5667 15.0782 35.635 15.3483 35.7607C15.6284 35.877 15.8838 36.0072 16.1143 36.1513C16.3546 36.2956 16.5805 36.4297 16.7921 36.5536C17.0039 36.6678 17.2221 36.7284 17.4466 36.7355C17.6225 36.7312 17.8233 36.7131 18.0488 36.6811C18.2451 36.6482 18.4712 36.5967 18.7271 36.5266C18.9931 36.4471 19.2893 36.3294 19.616 36.1736C19.2853 36.4758 19.0146 36.7311 18.8038 36.9394C18.603 37.1383 18.4471 37.3043 18.336 37.4376C18.2048 37.5898 18.1088 37.7089 18.0478 37.7949C17.9863 37.9005 17.8941 38.0588 17.7711 38.2699C17.6585 38.4617 17.5049 38.7207 17.3104 39.0467C17.1162 39.3631 16.8703 39.7803 16.5729 40.2986C16.5913 39.625 16.5371 39.1006 16.4106 38.7253C16.2938 38.3504 16.16 38.0628 16.0091 37.8626C15.8298 37.6323 15.6238 37.4841 15.3911 37.4182C15.1772 37.3821 14.9614 37.4144 14.7437 37.515C14.5263 37.6059 14.3076 37.7456 14.0875 37.934C13.8772 38.1228 13.6708 38.3508 13.4681 38.618C13.2755 38.8757 13.0971 39.1486 12.933 39.4365C12.7786 39.7248 12.6485 40.0187 12.5426 40.3182C12.437 40.608 12.3661 40.8793 12.33 41.1322C12.2946 41.3558 12.2825 41.6193 12.2938 41.9225C12.3053 42.216 12.341 42.52 12.4008 42.8345C12.4609 43.1393 12.5407 43.4398 12.6401 43.736C12.7395 44.0323 12.8641 44.3 13.0139 44.5392C13.1737 44.769 13.3541 44.9603 13.5551 45.1132C13.7563 45.2563 13.9889 45.3271 14.2527 45.3256C14.546 45.3153 14.8364 45.2365 15.1237 45.0893C15.3711 44.97 15.6254 44.7826 15.8863 44.5271C16.1475 44.2617 16.3777 43.883 16.5767 43.391L18.7328 43.8546C18.0874 44.5964 17.4618 45.1482 16.856 45.5102C16.26 45.8725 15.7256 46.1243 15.2528 46.2658C14.7014 46.4243 14.1819 46.491 13.6941 46.4658C13.081 46.3781 12.5102 46.1745 11.9816 45.855C11.453 45.5355 10.9993 45.1548 10.6206 44.713C10.2519 44.2617 9.96717 43.774 9.76652 43.2499C9.56586 42.7257 9.48696 42.2152 9.52979 41.7182C9.55835 41.3869 9.63717 41.0035 9.76626 40.5679C9.89561 40.1225 10.0643 39.6686 10.2722 39.2062C10.49 38.7441 10.7465 38.2929 11.0418 37.8528C11.3371 37.4127 11.6603 37.0222 12.0115 36.6816C12.363 36.3311 12.7417 36.0548 13.1477 35.8527C13.5638 35.6411 13.9915 35.5422 14.4307 35.556ZM19.1322 46.9448C19.2338 46.8015 19.3156 46.6673 19.3777 46.5422C19.4397 46.4171 19.4914 46.3113 19.5328 46.2247C19.5748 46.1185 19.6067 46.0218 19.6287 45.9346C19.64 45.8763 19.6495 45.7056 19.6573 45.4225C19.665 45.1394 19.6649 44.7828 19.6571 44.3527C19.659 43.9228 19.6575 43.4392 19.6526 42.9016C19.6575 42.3644 19.6528 41.8171 19.6387 41.2598C19.6343 40.7027 19.6247 40.1602 19.6097 39.6321C19.6046 39.1043 19.5979 38.6303 19.5898 38.2099C19.582 37.7797 19.572 37.4277 19.56 37.1537C19.5479 36.8798 19.5375 36.7231 19.5288 36.6838C19.5109 36.6246 19.4783 36.5649 19.4311 36.5048C19.3367 36.3846 19.1738 36.2671 18.9425 36.1524C19.4437 36.0411 19.8272 35.9506 20.0928 35.8808C20.2501 35.8467 20.3878 35.8119 20.506 35.7766C20.6144 35.7409 20.7229 35.7053 20.8313 35.6696C20.9202 35.6333 21.019 35.5924 21.1277 35.547C21.2367 35.4918 21.336 35.4314 21.4257 35.3659C21.3692 35.6474 21.3227 35.9195 21.2862 36.1822C21.2498 36.4448 21.2187 36.6881 21.1931 36.912C21.1667 37.1652 21.1503 37.409 21.1439 37.6433C21.0821 38.1201 21.0386 38.6414 21.0134 39.2073C20.9983 39.7637 20.9877 40.3301 20.9818 40.9064C20.9759 41.4826 20.9801 42.0446 20.9945 42.5921C21.0089 43.1397 21.0247 43.6385 21.0417 44.0885C21.0688 44.529 21.0927 44.9059 21.1135 45.2192C21.1443 45.5231 21.1683 45.7193 21.1854 45.8077C21.2205 45.9554 21.2557 46.0982 21.291 46.2361C21.3268 46.3544 21.3674 46.4778 21.4128 46.6063C21.4579 46.7445 21.5135 46.8537 21.5797 46.934L20.1595 46.8892C20.0326 46.8853 19.9105 46.8863 19.7931 46.8924C19.6855 46.8987 19.5729 46.905 19.4555 46.911C19.3381 46.9171 19.2304 46.9284 19.1322 46.9448ZM23.3751 40.7326C23.4255 40.6755 23.4577 40.5691 23.4717 40.4132C23.4957 40.2478 23.5398 40.0636 23.604 39.8604C23.6779 39.6576 23.796 39.4464 23.9583 39.2268C24.1206 39.0071 24.38 38.8053 24.7368 38.6211C25.0837 38.4366 25.4187 38.3299 25.7419 38.301C26.0651 38.2721 26.3722 38.2964 26.6631 38.374C26.9541 38.4515 27.2245 38.5675 27.4743 38.7219C27.7338 38.8767 27.9686 39.0453 28.1785 39.2277C28.3217 39.3495 28.4342 39.524 28.516 39.7513C28.598 39.9688 28.6596 40.215 28.701 40.4899C28.7424 40.7648 28.7687 41.0538 28.78 41.3571C28.8013 41.6509 28.813 41.9394 28.815 42.2229C28.8173 42.4965 28.8153 42.7505 28.8089 42.9847C28.8126 43.2096 28.827 43.3957 28.8523 43.543C28.8855 43.759 28.9488 43.9467 29.0422 44.1059C29.1358 44.2554 29.2397 44.3857 29.3539 44.4968C29.4684 44.5981 29.5834 44.6799 29.6989 44.7421C29.8145 44.8044 29.9158 44.8515 30.0028 44.8836C30.0606 44.9147 30.1137 44.9359 30.1623 44.9472C30.2588 44.9894 30.3271 44.9915 30.3672 44.9537C30.305 45.0885 30.2481 45.204 30.1966 45.3001C30.1452 45.3961 30.1039 45.4779 30.0727 45.5453C30.0315 45.6222 29.9957 45.6845 29.965 45.7324C29.9342 45.7901 29.8985 45.8427 29.8582 45.8903C29.8276 45.9382 29.7871 45.9906 29.7367 46.0477C29.6863 46.1047 29.6357 46.1666 29.5851 46.2334C29.4595 46.1806 29.3391 46.1182 29.2238 46.0462C29.1183 45.9745 29.0224 45.9079 28.9362 45.8466C28.8307 45.7749 28.7349 45.7035 28.6489 45.6324C28.5629 45.5613 28.4821 45.4806 28.4064 45.3902C28.3402 45.31 28.2693 45.2247 28.1936 45.1344C28.1276 45.0444 28.0717 44.9449 28.0258 44.836C27.9638 44.9611 27.8174 45.1372 27.5865 45.3644C27.3654 45.592 27.0765 45.7978 26.7198 45.982C26.3633 46.1564 25.9498 46.2753 25.4792 46.3386C25.0183 46.4023 24.5122 46.3326 23.9609 46.1296C23.719 46.0438 23.4926 45.9243 23.2819 45.7711C23.0714 45.6082 22.891 45.4169 22.7407 45.1972C22.6001 44.9778 22.4994 44.7304 22.4385 44.4549C22.3876 44.17 22.401 43.8577 22.4786 43.5182C22.5563 43.1787 22.6861 42.8946 22.8682 42.6658C23.0503 42.437 23.2653 42.2533 23.5133 42.1145C23.7613 41.9758 24.0377 41.8721 24.3424 41.8036C24.6471 41.735 24.9609 41.6911 25.2838 41.672C25.5379 41.6702 25.7912 41.6929 26.044 41.7399C26.2576 41.7857 26.4801 41.866 26.7115 41.9808C26.9431 42.0857 27.139 42.2434 27.2994 42.4536C27.3037 41.9359 27.2954 41.5253 27.2743 41.2217C27.2633 40.9087 27.2503 40.6689 27.2353 40.5024C27.2016 40.3059 27.1711 40.1682 27.144 40.0891C27.097 40.0193 27.0455 39.9395 26.9893 39.8498C26.9429 39.7604 26.8816 39.6803 26.8053 39.6095C26.7294 39.529 26.6335 39.4624 26.5177 39.4099C26.4019 39.3574 26.2658 39.3336 26.1093 39.3384C25.9431 39.343 25.8102 39.3828 25.7104 39.4578C25.6107 39.5328 25.5301 39.6231 25.4686 39.7286C25.4171 39.8247 25.3849 39.9312 25.372 40.048C25.359 40.1648 25.3611 40.2675 25.3782 40.356C25.3962 40.4152 25.4237 40.4795 25.4609 40.5491C25.4984 40.6089 25.5503 40.674 25.6168 40.7445C25.6832 40.815 25.7744 40.8765 25.8902 40.929C25.6649 40.9512 25.4641 40.9693 25.2879 40.9833C25.1119 40.9875 24.9603 40.9974 24.8328 41.013C24.6859 41.0279 24.5586 41.0385 24.451 41.0449C24.3433 41.0513 24.2159 41.0668 24.0687 41.0915C23.9413 41.107 23.7844 41.1265 23.5982 41.1499C23.4119 41.1734 23.1961 41.2057 22.9508 41.2468C23.0112 41.1803 23.0666 41.1186 23.117 41.0615C23.1677 40.9947 23.2132 40.9375 23.2536 40.89C23.2942 40.8326 23.3347 40.7801 23.3751 40.7326ZM25.5238 42.5442C25.3479 42.5485 25.171 42.5869 24.9932 42.6594C24.8156 42.7222 24.6566 42.8198 24.5163 42.9522C24.3762 43.0748 24.2549 43.2224 24.1525 43.395C24.0602 43.5582 24.0112 43.7423 24.0056 43.9473C24 44.1523 24.0439 44.3345 24.1373 44.4937C24.2407 44.6435 24.374 44.7699 24.5373 44.8727C24.7103 44.9759 24.8942 45.0403 25.0888 45.066C25.2933 45.0919 25.4939 45.0787 25.6907 45.0263C25.878 44.9638 26.0567 44.8619 26.2266 44.7207C26.3968 44.5698 26.5428 44.4083 26.6647 44.2362C26.7869 44.0544 26.8748 43.8765 26.9284 43.7023C26.9822 43.5183 26.9912 43.3672 26.9554 43.2488C26.8842 42.9925 26.7133 42.8113 26.4426 42.7051C26.1723 42.5891 25.866 42.5355 25.5238 42.5442ZM36.8526 38.7241C36.7589 38.9361 36.6755 39.1289 36.6024 39.3024C36.539 39.4763 36.4811 39.6308 36.4286 39.766C36.3755 39.9206 36.3279 40.0559 36.2856 40.1718C36.2429 40.3072 36.1947 40.4621 36.1411 40.6362C36.0881 40.7909 36.0193 40.9841 35.9348 41.216C35.8604 41.4383 35.7701 41.7042 35.664 42.0135C35.5987 41.5425 35.4672 41.167 35.2697 40.8873C35.0724 40.5977 34.8686 40.3714 34.6581 40.2085C34.4091 40.0248 34.1392 39.8893 33.8485 39.802C33.3238 39.6975 32.9429 39.6953 32.7057 39.7953C32.4685 39.8953 32.3086 40.027 32.226 40.1905C32.1851 40.2576 32.1388 40.3441 32.0871 40.45C32.0454 40.5464 32.0084 40.6478 31.9762 40.7542C31.9538 40.861 31.946 40.9682 31.9528 41.0759C31.9597 41.1836 32.0012 41.2729 32.0774 41.3437C32.1249 41.394 32.2499 41.4663 32.4525 41.5606C32.6554 41.6452 32.8969 41.7456 33.177 41.8619C33.4672 41.9687 33.7717 42.0858 34.0906 42.2131C34.4193 42.3407 34.7285 42.4677 35.0181 42.594C35.3077 42.7204 35.5583 42.8455 35.7699 42.9694C35.9814 43.0933 36.12 43.2052 36.1857 43.3049C36.2416 43.4044 36.3015 43.5382 36.3653 43.7063C36.4391 43.865 36.488 44.0424 36.512 44.2385C36.546 44.4252 36.5504 44.6208 36.5253 44.8252C36.5102 45.0201 36.4512 45.2136 36.3483 45.4058C36.2454 45.598 36.0843 45.7737 35.865 45.9329C35.6555 46.0924 35.3736 46.2203 35.0193 46.3166C34.6059 46.4306 34.2097 46.4523 33.8306 46.3817C33.4515 46.3112 33.1025 46.2123 32.7836 46.085C32.4745 45.958 32.2042 45.8371 31.9729 45.7224C31.7418 45.5979 31.5772 45.5438 31.4791 45.5603C31.3712 45.5764 31.2477 45.6263 31.1087 45.7098C30.9696 45.7934 30.8353 45.882 30.7058 45.9756C30.5862 46.0598 30.4815 46.1395 30.3915 46.2148C30.3018 46.2804 30.2572 46.3034 30.2578 46.2839C30.2583 46.2644 30.2745 46.2063 30.3065 46.1096C30.3482 46.0132 30.3904 45.8973 30.4332 45.7618C30.486 45.6169 30.5341 45.4621 30.5777 45.2974C30.6313 45.1232 30.67 44.9583 30.6937 44.8028C30.7167 44.6765 30.7454 44.521 30.7797 44.3365C30.8037 44.1712 30.8336 43.9718 30.8692 43.7384C30.9149 43.4956 30.9668 43.2041 31.0249 42.864C31.0668 43.1194 31.1292 43.3411 31.212 43.5294C31.3045 43.7179 31.3929 43.8819 31.477 44.0214C31.5801 44.1809 31.679 44.316 31.7737 44.4264C31.9164 44.5677 32.0837 44.7 32.2758 44.8233C32.4776 44.9469 32.6797 45.0558 32.8823 45.1501C33.0852 45.2347 33.2791 45.2896 33.464 45.315C33.6489 45.3404 33.8056 45.3258 33.9341 45.2712C34.0626 45.2166 34.1729 45.1126 34.265 44.9592C34.3668 44.8061 34.4398 44.6374 34.4839 44.4531C34.528 44.2689 34.5474 44.0936 34.5422 43.9274C34.5372 43.7513 34.4971 43.6084 34.422 43.4986C34.3653 43.4284 34.231 43.3362 34.0192 43.2221C33.8171 43.1082 33.5714 42.9833 33.2821 42.8471C33.0025 42.7113 32.7035 42.57 32.3851 42.4232C32.0764 42.2767 31.7825 42.1306 31.5031 41.9851C31.2338 41.83 31.0081 41.6861 30.8261 41.5534C30.6542 41.4112 30.5599 41.2861 30.5433 41.1781C30.528 41.0213 30.518 40.85 30.5133 40.6642C30.5089 40.4687 30.5238 40.2786 30.5581 40.0941C30.6025 39.9 30.6759 39.7167 30.7783 39.5441C30.8904 39.3717 31.0506 39.2302 31.2587 39.1195C31.3975 39.0457 31.5797 38.9929 31.8053 38.9609C32.0308 38.9289 32.2802 38.9172 32.5535 38.9258C32.8271 38.9247 33.1099 38.9433 33.4019 38.9818C33.6942 39.0106 33.9716 39.0486 34.2341 39.096C34.5066 39.1339 34.7496 39.1806 34.963 39.2362C35.1861 39.292 35.3558 39.3414 35.4718 39.3841C35.6071 39.4372 35.7534 39.4467 35.9107 39.4126C36.0481 39.3876 36.1962 39.3287 36.3551 39.236C36.5139 39.1433 36.6797 38.9727 36.8526 38.7241ZM43.8364 38.944C43.7427 39.156 43.6593 39.3488 43.5862 39.5223C43.5229 39.6962 43.4649 39.8507 43.4124 39.9858C43.3594 40.1405 43.3117 40.2758 43.2695 40.3917C43.2267 40.5271 43.1785 40.6819 43.125 40.8561C43.0719 41.0108 43.0031 41.204 42.9187 41.4359C42.8442 41.6582 42.754 41.9241 42.6478 42.2334C42.5825 41.7623 42.4511 41.3869 42.2535 41.1071C42.0563 40.8176 41.8524 40.5913 41.6419 40.4284C41.3929 40.2447 41.1231 40.1092 40.8324 40.0219C40.3077 39.9174 39.9267 39.9152 39.6896 40.0152C39.4524 40.1152 39.2925 40.2469 39.2099 40.4104C39.169 40.4775 39.1227 40.564 39.0709 40.6699C39.0292 40.7663 38.9923 40.8677 38.9601 40.9741C38.9376 41.0809 38.9298 41.1881 38.9367 41.2958C38.9435 41.4035 38.985 41.4928 39.0613 41.5635C39.1087 41.6139 39.2338 41.6862 39.4364 41.7805C39.6392 41.8651 39.8807 41.9655 40.1608 42.0818C40.451 42.1886 40.7555 42.3057 41.0745 42.433C41.4031 42.5606 41.7123 42.6876 42.0019 42.8139C42.2916 42.9403 42.5422 43.0654 42.7537 43.1893C42.9653 43.3132 43.1039 43.4251 43.1695 43.5248C43.2254 43.6243 43.2853 43.7581 43.3491 43.9262C43.4229 44.0848 43.4718 44.2623 43.4958 44.4584C43.5298 44.6451 43.5343 44.8407 43.5091 45.0451C43.4941 45.24 43.4351 45.4335 43.3322 45.6257C43.2292 45.8179 43.0681 45.9936 42.8489 46.1527C42.6394 46.3122 42.3575 46.4402 42.0032 46.5365C41.5898 46.6505 41.1935 46.6722 40.8144 46.6016C40.4354 46.5311 40.0864 46.4322 39.7675 46.3049C39.4583 46.1779 39.1881 46.057 38.9567 45.9423C38.7257 45.8177 38.561 45.7637 38.4629 45.7802C38.355 45.7963 38.2315 45.8462 38.0925 45.9297C37.9535 46.0133 37.8192 46.1019 37.6896 46.1955C37.5701 46.2797 37.4653 46.3594 37.3754 46.4347C37.2857 46.5003 37.2411 46.5233 37.2416 46.5038C37.2421 46.4843 37.2584 46.4262 37.2903 46.3295C37.332 46.2331 37.3742 46.1172 37.417 45.9817C37.4698 45.8368 37.518 45.682 37.5615 45.5173C37.6151 45.3431 37.6538 45.1782 37.6776 45.0227C37.7006 44.8964 37.7292 44.7409 37.7635 44.5564C37.7876 44.391 37.8174 44.1917 37.8531 43.9583C37.8988 43.7155 37.9507 43.424 38.0088 43.0839C38.0507 43.3392 38.113 43.561 38.1958 43.7493C38.2884 43.9378 38.3767 44.1018 38.4608 44.2413C38.564 44.4008 38.6629 44.5359 38.7575 44.6463C38.9002 44.7876 39.0676 44.9199 39.2596 45.0432C39.4614 45.1668 39.6636 45.2757 39.8662 45.37C40.069 45.4546 40.2629 45.5095 40.4478 45.5349C40.6328 45.5603 40.7895 45.5457 40.918 45.4911C41.0464 45.4365 41.1567 45.3325 41.2488 45.1791C41.3507 45.026 41.4237 44.8573 41.4678 44.673C41.5118 44.4888 41.5313 44.3135 41.526 44.1473C41.5211 43.9712 41.481 43.8283 41.4058 43.7185C41.3491 43.6483 41.2149 43.5561 41.003 43.442C40.801 43.3281 40.5553 43.2032 40.2659 43.067C39.9863 42.9312 39.6873 42.7899 39.3689 42.6431C39.0603 42.4966 38.7663 42.3505 38.487 42.205C38.2176 42.0499 37.992 41.906 37.81 41.7733C37.638 41.6311 37.5437 41.506 37.5271 41.398C37.5119 41.2412 37.5019 41.0699 37.4972 40.8841C37.4927 40.6886 37.5077 40.4985 37.542 40.314C37.5863 40.1199 37.6597 39.9366 37.7621 39.764C37.8743 39.5916 38.0344 39.4501 38.2426 39.3394C38.3814 39.2656 38.5635 39.2128 38.7891 39.1808C39.0147 39.1488 39.2641 39.1371 39.5374 39.1457C39.811 39.1446 40.0938 39.1632 40.3858 39.2017C40.6781 39.2305 40.9555 39.2685 41.2179 39.3159C41.4904 39.3538 41.7334 39.4005 41.9468 39.4561C42.17 39.5119 42.3396 39.5613 42.4557 39.604C42.591 39.6571 42.7373 39.6666 42.8945 39.6325C43.0319 39.6075 43.1801 39.5486 43.3389 39.4559C43.4977 39.3632 43.6636 39.1926 43.8364 38.944Z" fill="black"/>
<path d="M68.5088 20.666C69.2087 20.7311 69.8271 20.7799 70.3643 20.8125C70.9014 20.8451 71.349 20.8776 71.707 20.9102C72.1302 20.9427 72.4883 20.9671 72.7812 20.9834C73.0742 20.9997 73.4323 21.0078 73.8555 21.0078C74.2135 21.0241 74.6611 21.0322 75.1982 21.0322C75.7354 21.0322 76.3701 21.0322 77.1025 21.0322C76.6305 21.2601 76.2643 21.4717 76.0039 21.667C75.7598 21.8623 75.5726 22.0332 75.4424 22.1797C75.2796 22.3587 75.182 22.5215 75.1494 22.668C75.1331 22.7982 75.1657 23.0179 75.2471 23.3271C75.3285 23.6364 75.4424 23.9863 75.5889 24.377C75.7354 24.7513 75.9144 25.1501 76.126 25.5732C76.3376 25.9964 76.5573 26.3789 76.7852 26.7207C77.0293 27.0462 77.2734 27.3148 77.5176 27.5264C77.7617 27.738 77.9977 27.8356 78.2256 27.8193C78.4535 27.8031 78.7301 27.6973 79.0557 27.502C79.3812 27.2904 79.7148 27.0299 80.0566 26.7207C80.4147 26.4115 80.7646 26.0778 81.1064 25.7197C81.4482 25.3617 81.7493 25.0117 82.0098 24.6699C82.2865 24.3281 82.5062 24.0189 82.6689 23.7422C82.848 23.4492 82.9375 23.2376 82.9375 23.1074C82.9212 22.9447 82.8561 22.7575 82.7422 22.5459C82.6445 22.3669 82.4818 22.1553 82.2539 21.9111C82.026 21.6507 81.7087 21.3577 81.3018 21.0322C82.6364 21.0811 83.613 21.1055 84.2314 21.1055H85.1348H86.1602C86.5345 21.1055 87.0309 21.1055 87.6494 21.1055C88.2679 21.0892 89.041 21.0648 89.9688 21.0322C89.334 21.4554 88.7806 21.8379 88.3086 22.1797C87.8529 22.5052 87.4622 22.7819 87.1367 23.0098C86.7624 23.2865 86.4531 23.5306 86.209 23.7422C85.9323 23.9701 85.5498 24.3281 85.0615 24.8164C84.6383 25.2396 84.0768 25.8092 83.377 26.5254C82.6771 27.2253 81.7982 28.1367 80.7402 29.2598C80.5938 30.4479 80.4961 31.4082 80.4473 32.1406C80.4147 32.873 80.3984 33.4508 80.3984 33.874C80.3984 34.3623 80.431 34.7285 80.4961 34.9727C80.5775 35.168 80.7158 35.3958 80.9111 35.6562C81.0739 35.8841 81.3018 36.1527 81.5947 36.4619C81.904 36.7712 82.3109 37.113 82.8154 37.4873C82.2783 37.3571 81.7738 37.2594 81.3018 37.1943C80.846 37.1292 80.4391 37.0804 80.0811 37.0479C79.6579 36.999 79.2754 36.9746 78.9336 36.9746C78.5755 36.9746 78.1523 36.9909 77.6641 37.0234C77.2409 37.056 76.7363 37.0967 76.1504 37.1455C75.5645 37.1943 74.8809 37.2676 74.0996 37.3652C74.5065 37.0885 74.8402 36.8118 75.1006 36.5352C75.361 36.2585 75.5645 36.0062 75.7109 35.7783C75.89 35.5179 76.0202 35.2738 76.1016 35.0459C76.1667 34.7855 76.2155 34.4111 76.248 33.9229C76.2806 33.4997 76.2806 32.9382 76.248 32.2383C76.2318 31.5384 76.1829 30.6514 76.1016 29.5771C75.125 28.0146 74.3275 26.7858 73.709 25.8906C73.0905 24.9792 72.6104 24.2874 72.2686 23.8154C71.8617 23.2783 71.5687 22.9202 71.3896 22.7412C71.2269 22.611 71.0072 22.4482 70.7305 22.2529C70.5026 22.0739 70.2096 21.8623 69.8516 21.6182C69.4772 21.3577 69.0296 21.0404 68.5088 20.666ZM91.0186 27.0625C91.4417 27.0625 91.8812 27.1439 92.3369 27.3066C92.7926 27.4531 93.2321 27.6484 93.6553 27.8926C94.0785 28.1204 94.4609 28.3727 94.8027 28.6494C95.1608 28.9098 95.4538 29.1621 95.6816 29.4062C96.0885 29.8457 96.3652 30.4398 96.5117 31.1885C96.6745 31.9209 96.707 32.6777 96.6094 33.459C96.5117 34.224 96.2839 34.9482 95.9258 35.6318C95.5677 36.3154 95.0713 36.82 94.4365 37.1455C93.9808 37.3734 93.5332 37.5524 93.0938 37.6826C92.6543 37.8128 92.2311 37.9105 91.8242 37.9756C91.4173 38.0407 91.0348 38.0732 90.6768 38.0732C90.3187 38.0732 90.0094 38.0651 89.749 38.0488C89.2607 38.0163 88.748 37.8454 88.2109 37.5361C87.6901 37.2269 87.1937 36.8444 86.7217 36.3887C86.266 35.9329 85.8753 35.4365 85.5498 34.8994C85.2243 34.346 85.029 33.8252 84.9639 33.3369C84.8662 32.6696 84.8499 31.9697 84.915 31.2373C84.9801 30.5049 85.2161 29.8294 85.623 29.2109C86.0462 28.5924 86.681 28.0798 87.5273 27.6729C88.39 27.266 89.5537 27.0625 91.0186 27.0625ZM90.2129 36.5352C90.3919 36.5677 90.6361 36.527 90.9453 36.4131C91.2546 36.2829 91.5557 36.0794 91.8486 35.8027C92.1579 35.526 92.4264 35.1761 92.6543 34.7529C92.8984 34.3135 93.0449 33.7845 93.0938 33.166C93.1426 32.5638 93.1426 32.0104 93.0938 31.5059C93.0612 31.0013 92.988 30.5618 92.874 30.1875C92.7601 29.7969 92.6299 29.4795 92.4834 29.2354C92.3369 28.9912 92.1823 28.8203 92.0195 28.7227C91.7428 28.5762 91.4092 28.4622 91.0186 28.3809C90.6279 28.2832 90.2943 28.2995 90.0176 28.4297C89.8874 28.4948 89.7246 28.6331 89.5293 28.8447C89.334 29.0563 89.1387 29.3249 88.9434 29.6504C88.748 29.9596 88.569 30.3177 88.4062 30.7246C88.2598 31.1315 88.154 31.5547 88.0889 31.9941C88.0238 32.4336 88.0075 32.9056 88.04 33.4102C88.0889 33.9147 88.1947 34.3949 88.3574 34.8506C88.5202 35.29 88.748 35.6725 89.041 35.998C89.3503 36.3073 89.7409 36.4863 90.2129 36.5352ZM97.5371 20.3975C97.7161 20.4788 97.9277 20.5358 98.1719 20.5684C98.4323 20.6009 98.6764 20.6172 98.9043 20.6172C99.181 20.6172 99.4658 20.609 99.7588 20.5928C100.052 20.5765 100.41 20.5439 100.833 20.4951C101.175 20.4626 101.598 20.4219 102.103 20.373C102.607 20.3242 103.169 20.2591 103.787 20.1777C103.559 20.2917 103.364 20.4137 103.201 20.5439C103.038 20.6742 102.9 20.8044 102.786 20.9346C102.656 21.0811 102.55 21.2275 102.469 21.374C102.355 21.5693 102.2 21.9111 102.005 22.3994C101.826 22.8714 101.639 23.4004 101.443 23.9863C101.264 24.5723 101.102 25.1663 100.955 25.7686C100.825 26.3708 100.752 26.8835 100.735 27.3066C100.719 27.6647 100.703 28.0716 100.687 28.5273C100.67 28.918 100.654 29.3981 100.638 29.9678C100.621 30.5374 100.605 31.1885 100.589 31.9209C101.761 31.0745 102.664 30.3991 103.299 29.8945C103.934 29.3737 104.397 28.9749 104.69 28.6982C105.032 28.389 105.236 28.1693 105.301 28.0391C105.285 27.9414 105.244 27.8356 105.179 27.7217C105.097 27.624 104.983 27.5101 104.837 27.3799C104.69 27.2497 104.471 27.1032 104.178 26.9404C104.601 26.9893 104.967 27.0218 105.276 27.0381C105.602 27.0544 105.879 27.0706 106.106 27.0869C106.367 27.1032 106.595 27.1032 106.79 27.0869C107.002 27.0869 107.262 27.0788 107.571 27.0625C108.108 27.0462 108.938 27.0218 110.062 26.9893C108.971 27.5589 108.108 28.0472 107.474 28.4541C107.116 28.682 106.798 28.8936 106.521 29.0889C106.245 29.3005 105.96 29.5202 105.667 29.748C105.407 29.9434 105.105 30.1712 104.764 30.4316C104.438 30.6921 104.113 30.9688 103.787 31.2617C104.357 32.1895 104.853 32.9544 105.276 33.5566C105.716 34.1589 106.082 34.6471 106.375 35.0215C106.717 35.4609 107.018 35.8109 107.278 36.0713C107.539 36.3154 107.881 36.5921 108.304 36.9014C108.662 37.1781 109.126 37.5036 109.695 37.8779C110.281 38.236 110.989 38.651 111.819 39.123C111.396 39.0417 110.989 38.9847 110.599 38.9521C110.208 38.9359 109.874 38.9359 109.598 38.9521C109.256 38.9684 108.947 39.001 108.67 39.0498C108.377 39.1149 108.051 39.1963 107.693 39.2939C107.384 39.3753 107.018 39.4811 106.595 39.6113C106.188 39.7578 105.74 39.945 105.252 40.1729C105.561 39.945 105.789 39.7253 105.936 39.5137C106.098 39.3184 106.212 39.1556 106.277 39.0254C106.342 38.8626 106.367 38.7243 106.351 38.6104C106.269 38.4476 106.082 38.1139 105.789 37.6094C105.512 37.1862 105.105 36.5677 104.568 35.7539C104.031 34.9401 103.266 33.8333 102.273 32.4336C102.225 32.4499 102.143 32.4987 102.029 32.5801C101.932 32.6615 101.785 32.7754 101.59 32.9219C101.395 33.0521 101.134 33.2474 100.809 33.5078L101.468 37.7803C101.321 37.8454 101.159 37.9023 100.979 37.9512C100.817 38 100.662 38.0407 100.516 38.0732C100.337 38.1221 100.158 38.1546 99.9785 38.1709C99.7995 38.1872 99.5879 38.2197 99.3438 38.2686C99.1322 38.3011 98.8799 38.3418 98.5869 38.3906C98.2939 38.4557 97.9603 38.529 97.5859 38.6104C97.7975 38.4639 97.9684 38.293 98.0986 38.0977C98.2288 37.9186 98.3346 37.7477 98.416 37.585C98.4974 37.4059 98.5706 37.2188 98.6357 37.0234C98.6683 36.8607 98.7008 36.4375 98.7334 35.7539C98.7822 35.0703 98.8229 34.2565 98.8555 33.3125C98.888 32.3522 98.9124 31.3268 98.9287 30.2363C98.9613 29.1458 98.9775 28.1204 98.9775 27.1602C98.9775 26.1836 98.9694 25.3372 98.9531 24.6211C98.9368 23.8887 98.9043 23.4167 98.8555 23.2051C98.7741 22.9447 98.6764 22.668 98.5625 22.375C98.4648 22.1146 98.3265 21.8216 98.1475 21.4961C97.9847 21.1543 97.7812 20.7881 97.5371 20.3975ZM115.53 34.0693C115.986 34.0693 116.409 34.0205 116.8 33.9229C117.125 33.8415 117.435 33.7113 117.728 33.5322C118.037 33.3369 118.24 33.0521 118.338 32.6777C118.663 32.7428 118.94 32.7998 119.168 32.8486C119.396 32.8812 119.591 32.9137 119.754 32.9463C119.933 32.9951 120.088 33.0277 120.218 33.0439C120.348 33.0765 120.503 33.109 120.682 33.1416C120.844 33.1742 121.04 33.2148 121.268 33.2637C121.512 33.2962 121.797 33.3451 122.122 33.4102C121.878 33.3776 121.626 33.402 121.365 33.4834C121.121 33.5648 120.885 33.6543 120.657 33.752C120.397 33.8659 120.153 34.0042 119.925 34.167C119.778 34.2646 119.607 34.4111 119.412 34.6064C119.233 34.8018 118.973 34.9889 118.631 35.168C118.289 35.347 117.833 35.5016 117.264 35.6318C116.71 35.7458 115.994 35.7865 115.115 35.7539C114.057 35.7214 113.17 35.5342 112.454 35.1924C111.738 34.8343 111.16 34.403 110.721 33.8984C110.281 33.3776 109.964 32.8161 109.769 32.2139C109.573 31.6117 109.467 31.0501 109.451 30.5293C109.435 30.0085 109.59 29.4632 109.915 28.8936C110.241 28.3239 110.696 27.8031 111.282 27.3311C111.884 26.859 112.609 26.4766 113.455 26.1836C114.301 25.8743 115.229 25.7197 116.238 25.7197C116.824 25.7197 117.361 25.793 117.85 25.9395C118.354 26.0697 118.81 26.2487 119.217 26.4766C119.64 26.7044 120.006 26.9648 120.315 27.2578C120.625 27.5345 120.885 27.8193 121.097 28.1123C121.308 28.4215 121.487 28.7471 121.634 29.0889C121.764 29.3818 121.87 29.7155 121.951 30.0898C122.033 30.4642 122.057 30.8467 122.024 31.2373C120.787 31.2699 119.786 31.2943 119.021 31.3105C118.273 31.3268 117.687 31.335 117.264 31.335H116.165H115.335C115.042 31.335 114.66 31.3431 114.188 31.3594C113.715 31.3757 113.138 31.4001 112.454 31.4326C112.535 32.0837 112.739 32.5882 113.064 32.9463C113.406 33.2881 113.764 33.5485 114.139 33.7275C114.562 33.9229 115.026 34.0368 115.53 34.0693ZM113.333 29.6748C113.854 29.7074 114.285 29.7318 114.627 29.748C114.985 29.7643 115.278 29.7806 115.506 29.7969C115.75 29.8132 115.945 29.8213 116.092 29.8213H116.702C117.109 29.8213 117.866 29.7969 118.973 29.748C118.924 29.0319 118.769 28.4867 118.509 28.1123C118.265 27.738 118.004 27.4613 117.728 27.2822C117.402 27.0869 117.044 26.973 116.653 26.9404C115.595 26.9567 114.806 27.1764 114.285 27.5996C113.781 28.0228 113.463 28.7145 113.333 29.6748ZM122.757 26.3057C123.066 26.3219 123.343 26.3301 123.587 26.3301C123.847 26.3138 124.067 26.2975 124.246 26.2812C124.458 26.265 124.645 26.2487 124.808 26.2324C125.052 26.1999 125.304 26.1592 125.564 26.1104C125.792 26.0778 126.028 26.0371 126.272 25.9883C126.533 25.9232 126.785 25.8499 127.029 25.7686C126.932 26.0127 126.85 26.2243 126.785 26.4033C126.72 26.5824 126.671 26.737 126.639 26.8672C126.59 27.0137 126.565 27.1357 126.565 27.2334C126.549 27.3473 126.541 27.4857 126.541 27.6484C126.525 27.9251 126.525 28.3727 126.541 28.9912C127.387 28.2588 128.095 27.6891 128.665 27.2822C129.251 26.8753 129.715 26.5579 130.057 26.3301C130.464 26.0697 130.781 25.8988 131.009 25.8174C131.611 25.7197 132.14 25.8581 132.596 26.2324C132.791 26.3952 132.978 26.6149 133.157 26.8916C133.336 27.152 133.491 27.502 133.621 27.9414C133.751 28.3809 133.849 28.9098 133.914 29.5283C133.979 30.1305 133.987 30.8548 133.938 31.7012C133.597 31.7337 133.287 31.7663 133.011 31.7988C132.75 31.8314 132.531 31.8558 132.352 31.8721C132.14 31.9046 131.945 31.9209 131.766 31.9209L131.106 31.9941C130.879 32.0267 130.594 32.0592 130.252 32.0918C129.926 32.1081 129.528 32.1406 129.056 32.1895C129.739 31.6361 130.179 31.1559 130.374 30.749C130.586 30.3258 130.675 29.9759 130.643 29.6992C130.61 29.39 130.464 29.1214 130.203 28.8936C129.894 28.7145 129.56 28.6494 129.202 28.6982C128.893 28.7308 128.535 28.8691 128.128 29.1133C127.721 29.3574 127.29 29.8132 126.834 30.4805C126.867 31.5221 126.899 32.3848 126.932 33.0684C126.98 33.752 127.021 34.3053 127.054 34.7285C127.103 35.2168 127.143 35.5993 127.176 35.876C127.225 36.1201 127.322 36.3805 127.469 36.6572C127.583 36.8851 127.745 37.1374 127.957 37.4141C128.169 37.6908 128.445 37.9674 128.787 38.2441C128.071 38.2116 127.485 38.2116 127.029 38.2441C126.753 38.2604 126.508 38.2767 126.297 38.293C126.069 38.3255 125.825 38.3581 125.564 38.3906C125.337 38.4232 125.068 38.4557 124.759 38.4883C124.466 38.5371 124.14 38.5859 123.782 38.6348C123.912 38.4557 124.018 38.2441 124.1 38C124.181 37.7721 124.246 37.5524 124.295 37.3408C124.36 37.0967 124.409 36.8444 124.441 36.584C124.458 36.3561 124.466 36.0143 124.466 35.5586C124.482 35.1029 124.474 34.5902 124.441 34.0205C124.425 33.4346 124.401 32.8324 124.368 32.2139C124.336 31.5791 124.295 30.985 124.246 30.4316C124.197 29.8783 124.14 29.3981 124.075 28.9912C124.026 28.568 123.969 28.2751 123.904 28.1123C123.823 27.917 123.725 27.7217 123.611 27.5264C123.514 27.3473 123.392 27.1602 123.245 26.9648C123.099 26.7533 122.936 26.5335 122.757 26.3057ZM141.995 19.958C142.565 19.958 143.077 20.0557 143.533 20.251C144.005 20.43 144.437 20.6335 144.827 20.8613C145.234 21.0892 145.617 21.3008 145.975 21.4961C146.333 21.6751 146.699 21.7646 147.073 21.7646C147.366 21.7484 147.7 21.7077 148.074 21.6426C148.4 21.5775 148.774 21.4798 149.197 21.3496C149.637 21.2031 150.125 20.9915 150.662 20.7148C150.125 21.2357 149.686 21.6751 149.344 22.0332C149.018 22.375 148.766 22.6598 148.587 22.8877C148.375 23.1481 148.221 23.3516 148.123 23.498C148.025 23.6771 147.879 23.9456 147.684 24.3037C147.505 24.6292 147.26 25.0687 146.951 25.6221C146.642 26.1592 146.251 26.8672 145.779 27.7461C145.779 26.623 145.665 25.7523 145.438 25.1338C145.226 24.5153 144.99 24.0433 144.729 23.7178C144.42 23.3434 144.07 23.1074 143.68 23.0098C143.322 22.9609 142.964 23.026 142.605 23.2051C142.247 23.3678 141.889 23.612 141.531 23.9375C141.189 24.263 140.856 24.6536 140.53 25.1094C140.221 25.5488 139.936 26.0127 139.676 26.501C139.432 26.9893 139.228 27.4857 139.065 27.9902C138.903 28.4785 138.797 28.9342 138.748 29.3574C138.699 29.7318 138.691 30.1712 138.724 30.6758C138.756 31.1641 138.829 31.6686 138.943 32.1895C139.057 32.694 139.204 33.1904 139.383 33.6787C139.562 34.167 139.782 34.6064 140.042 34.9971C140.319 35.3714 140.628 35.6807 140.97 35.9248C141.312 36.1527 141.702 36.2585 142.142 36.2422C142.63 36.2096 143.11 36.0632 143.582 35.8027C143.989 35.5911 144.404 35.2656 144.827 34.8262C145.25 34.3704 145.617 33.7275 145.926 32.8975L149.539 33.5566C148.497 34.8262 147.48 35.7783 146.487 36.4131C145.511 37.0479 144.632 37.4954 143.851 37.7559C142.939 38.0488 142.076 38.1872 141.263 38.1709C140.237 38.057 139.277 37.7477 138.382 37.2432C137.487 36.7386 136.714 36.1283 136.062 35.4121C135.428 34.6797 134.931 33.8822 134.573 33.0195C134.215 32.1569 134.061 31.3105 134.109 30.4805C134.142 29.9271 134.256 29.2842 134.451 28.5518C134.646 27.8031 134.907 27.0381 135.232 26.2568C135.574 25.4756 135.981 24.7106 136.453 23.9619C136.925 23.2132 137.446 22.5459 138.016 21.96C138.585 21.3577 139.204 20.8776 139.871 20.5195C140.555 20.1452 141.263 19.958 141.995 19.958ZM150.345 38.6836C150.507 38.4395 150.638 38.2116 150.735 38C150.833 37.7884 150.914 37.6094 150.979 37.4629C151.045 37.2839 151.093 37.1211 151.126 36.9746C151.142 36.877 151.15 36.5921 151.15 36.1201C151.15 35.6481 151.134 35.054 151.102 34.3379C151.085 33.6217 151.061 32.8161 151.028 31.9209C151.012 31.0257 150.979 30.1143 150.931 29.1865C150.898 28.2588 150.857 27.3555 150.809 26.4766C150.776 25.5977 150.743 24.8083 150.711 24.1084C150.678 23.3923 150.646 22.8063 150.613 22.3506C150.581 21.8949 150.556 21.6344 150.54 21.5693C150.507 21.4717 150.451 21.374 150.369 21.2764C150.206 21.0811 149.93 20.8939 149.539 20.7148C150.369 20.5033 151.004 20.3324 151.443 20.2021C151.704 20.137 151.932 20.0719 152.127 20.0068C152.306 19.9417 152.485 19.8766 152.664 19.8115C152.811 19.7464 152.973 19.6732 153.152 19.5918C153.331 19.4941 153.494 19.3883 153.641 19.2744C153.559 19.7464 153.494 20.2021 153.445 20.6416C153.396 21.0811 153.356 21.488 153.323 21.8623C153.291 22.2855 153.274 22.6924 153.274 23.083C153.193 23.8805 153.144 24.7513 153.128 25.6953C153.128 26.623 153.136 27.5671 153.152 28.5273C153.169 29.4876 153.201 30.4235 153.25 31.335C153.299 32.2464 153.348 33.0765 153.396 33.8252C153.462 34.5576 153.519 35.1842 153.567 35.7051C153.632 36.2096 153.681 36.5352 153.714 36.6816C153.779 36.9258 153.844 37.1618 153.909 37.3896C153.974 37.585 154.048 37.7884 154.129 38C154.21 38.2279 154.308 38.4069 154.422 38.5371H152.054C151.842 38.5371 151.639 38.5452 151.443 38.5615C151.264 38.5778 151.077 38.5941 150.882 38.6104C150.687 38.6266 150.507 38.651 150.345 38.6836ZM157.132 28.1123C157.213 28.0146 157.262 27.8356 157.278 27.5752C157.311 27.2985 157.376 26.9893 157.474 26.6475C157.588 26.3057 157.775 25.9476 158.035 25.5732C158.296 25.1989 158.719 24.849 159.305 24.5234C159.874 24.1979 160.428 24.0026 160.965 23.9375C161.502 23.8724 162.015 23.8968 162.503 24.0107C162.991 24.1247 163.447 24.3037 163.87 24.5479C164.31 24.792 164.708 25.0605 165.066 25.3535C165.311 25.5488 165.506 25.8337 165.652 26.208C165.799 26.5661 165.913 26.973 165.994 27.4287C166.076 27.8844 166.132 28.3646 166.165 28.8691C166.214 29.3574 166.246 29.8376 166.263 30.3096C166.279 30.7653 166.287 31.1885 166.287 31.5791C166.303 31.9535 166.336 32.2627 166.385 32.5068C166.45 32.8649 166.564 33.1742 166.727 33.4346C166.889 33.6787 167.068 33.8903 167.264 34.0693C167.459 34.2321 167.654 34.3623 167.85 34.46C168.045 34.5576 168.216 34.6309 168.362 34.6797C168.46 34.7285 168.549 34.7611 168.631 34.7773C168.794 34.8424 168.908 34.8424 168.973 34.7773C168.875 35.0052 168.785 35.2005 168.704 35.3633C168.623 35.526 168.558 35.6644 168.509 35.7783C168.444 35.9085 168.387 36.0143 168.338 36.0957C168.289 36.1934 168.232 36.2829 168.167 36.3643C168.118 36.4456 168.053 36.5352 167.972 36.6328C167.89 36.7305 167.809 36.8363 167.728 36.9502C167.516 36.8688 167.312 36.7712 167.117 36.6572C166.938 36.5433 166.775 36.4375 166.629 36.3398C166.45 36.2259 166.287 36.112 166.141 35.998C165.994 35.8841 165.856 35.7539 165.726 35.6074C165.612 35.4772 165.49 35.3389 165.359 35.1924C165.245 35.0459 165.148 34.8831 165.066 34.7041C164.969 34.9157 164.733 35.2168 164.358 35.6074C164 35.998 163.528 36.3561 162.942 36.6816C162.356 36.9909 161.673 37.2106 160.892 37.3408C160.127 37.471 159.28 37.3815 158.353 37.0723C157.946 36.9421 157.563 36.7549 157.205 36.5107C156.847 36.2503 156.538 35.9411 156.277 35.583C156.033 35.2249 155.854 34.818 155.74 34.3623C155.643 33.8903 155.651 33.3695 155.765 32.7998C155.879 32.2301 156.082 31.75 156.375 31.3594C156.668 30.9688 157.018 30.6514 157.425 30.4072C157.832 30.1631 158.287 29.9759 158.792 29.8457C159.297 29.7155 159.817 29.626 160.354 29.5771C160.778 29.5609 161.201 29.5853 161.624 29.6504C161.982 29.7155 162.356 29.8376 162.747 30.0166C163.138 30.1794 163.471 30.4316 163.748 30.7734C163.732 29.9108 163.699 29.2272 163.65 28.7227C163.618 28.2018 163.585 27.8031 163.553 27.5264C163.488 27.2008 163.431 26.973 163.382 26.8428C163.3 26.7288 163.211 26.5986 163.113 26.4521C163.032 26.3057 162.926 26.1755 162.796 26.0615C162.666 25.9313 162.503 25.8255 162.308 25.7441C162.112 25.6628 161.884 25.6302 161.624 25.6465C161.347 25.6628 161.128 25.736 160.965 25.8662C160.802 25.9964 160.672 26.151 160.574 26.3301C160.493 26.4928 160.444 26.6719 160.428 26.8672C160.411 27.0625 160.42 27.2334 160.452 27.3799C160.485 27.4775 160.534 27.5833 160.599 27.6973C160.664 27.7949 160.753 27.9007 160.867 28.0146C160.981 28.1286 161.136 28.2262 161.331 28.3076C160.957 28.3564 160.623 28.3971 160.33 28.4297C160.037 28.446 159.785 28.4704 159.573 28.5029C159.329 28.5355 159.118 28.5599 158.938 28.5762C158.759 28.5924 158.548 28.625 158.304 28.6738C158.092 28.7064 157.832 28.7471 157.522 28.7959C157.213 28.8447 156.855 28.9098 156.448 28.9912C156.546 28.8773 156.635 28.7715 156.717 28.6738C156.798 28.5599 156.871 28.4622 156.937 28.3809C157.002 28.2832 157.067 28.1937 157.132 28.1123ZM160.794 31.0176C160.501 31.0339 160.208 31.1071 159.915 31.2373C159.622 31.3512 159.362 31.5221 159.134 31.75C158.906 31.9616 158.711 32.2139 158.548 32.5068C158.401 32.7835 158.328 33.0928 158.328 33.4346C158.328 33.7764 158.41 34.0775 158.572 34.3379C158.751 34.582 158.979 34.7855 159.256 34.9482C159.549 35.111 159.858 35.2087 160.184 35.2412C160.525 35.2738 160.859 35.2412 161.185 35.1436C161.494 35.0296 161.787 34.8506 162.063 34.6064C162.34 34.346 162.576 34.0693 162.771 33.7764C162.967 33.4671 163.105 33.166 163.187 32.873C163.268 32.5638 163.276 32.3115 163.211 32.1162C163.081 31.693 162.788 31.4001 162.332 31.2373C161.876 31.0583 161.364 30.985 160.794 31.0176ZM179.495 24.0596C179.349 24.4176 179.218 24.7432 179.104 25.0361C179.007 25.3291 178.917 25.5895 178.836 25.8174C178.755 26.0778 178.681 26.3057 178.616 26.501C178.551 26.7288 178.478 26.9893 178.396 27.2822C178.315 27.5426 178.209 27.8682 178.079 28.2588C177.965 28.6331 177.827 29.0807 177.664 29.6016C177.534 28.8203 177.298 28.2018 176.956 27.7461C176.614 27.2741 176.264 26.9079 175.906 26.6475C175.483 26.3545 175.027 26.1429 174.539 26.0127C173.66 25.8662 173.025 25.8825 172.635 26.0615C172.244 26.2406 171.984 26.4684 171.854 26.7451C171.788 26.859 171.715 27.0055 171.634 27.1846C171.569 27.3473 171.512 27.5182 171.463 27.6973C171.43 27.8763 171.422 28.0553 171.438 28.2344C171.455 28.4134 171.528 28.5599 171.658 28.6738C171.74 28.7552 171.951 28.8691 172.293 29.0156C172.635 29.1458 173.042 29.3005 173.514 29.4795C174.002 29.6423 174.515 29.8213 175.052 30.0166C175.605 30.2119 176.126 30.4072 176.614 30.6025C177.103 30.7979 177.526 30.9932 177.884 31.1885C178.242 31.3838 178.478 31.5628 178.592 31.7256C178.689 31.8883 178.795 32.1081 178.909 32.3848C179.039 32.6452 179.129 32.9382 179.178 33.2637C179.243 33.5729 179.259 33.8984 179.227 34.2402C179.21 34.5658 179.121 34.8913 178.958 35.2168C178.795 35.5423 178.535 35.8434 178.177 36.1201C177.835 36.3968 177.371 36.6247 176.785 36.8037C176.102 37.0153 175.442 37.0723 174.808 36.9746C174.173 36.877 173.587 36.7305 173.05 36.5352C172.529 36.3398 172.073 36.1527 171.683 35.9736C171.292 35.7783 171.015 35.6969 170.853 35.7295C170.674 35.762 170.47 35.8516 170.242 35.998C170.014 36.1445 169.795 36.2992 169.583 36.4619C169.388 36.6084 169.217 36.7467 169.07 36.877C168.924 36.9909 168.851 37.0316 168.851 36.999C168.851 36.9665 168.875 36.8688 168.924 36.7061C168.989 36.5433 169.054 36.348 169.119 36.1201C169.201 35.876 169.274 35.6156 169.339 35.3389C169.42 35.0459 169.477 34.7692 169.51 34.5088C169.542 34.2972 169.583 34.0368 169.632 33.7275C169.664 33.4508 169.705 33.1172 169.754 32.7266C169.819 32.3197 169.892 31.8314 169.974 31.2617C170.055 31.6849 170.169 32.0511 170.315 32.3604C170.478 32.6696 170.633 32.9382 170.779 33.166C170.958 33.4264 171.129 33.6462 171.292 33.8252C171.536 34.0531 171.821 34.2646 172.146 34.46C172.488 34.6553 172.83 34.8262 173.172 34.9727C173.514 35.1029 173.839 35.1842 174.148 35.2168C174.458 35.2493 174.718 35.2168 174.93 35.1191C175.141 35.0215 175.32 34.8424 175.467 34.582C175.63 34.3216 175.743 34.0368 175.809 33.7275C175.874 33.4183 175.898 33.1253 175.882 32.8486C175.866 32.5557 175.792 32.3197 175.662 32.1406C175.564 32.0267 175.337 31.8802 174.979 31.7012C174.637 31.5221 174.222 31.3268 173.733 31.1152C173.261 30.9036 172.757 30.6839 172.22 30.4561C171.699 30.2282 171.202 30.0003 170.73 29.7725C170.275 29.5283 169.892 29.3005 169.583 29.0889C169.29 28.861 169.127 28.6576 169.095 28.4785C169.062 28.2181 169.038 27.9333 169.021 27.624C169.005 27.2985 169.021 26.9811 169.07 26.6719C169.135 26.3464 169.249 26.0371 169.412 25.7441C169.591 25.4512 169.852 25.207 170.193 25.0117C170.421 24.8815 170.722 24.7839 171.097 24.7188C171.471 24.6536 171.886 24.6211 172.342 24.6211C172.798 24.6048 173.27 24.6211 173.758 24.6699C174.246 24.7025 174.71 24.7513 175.149 24.8164C175.605 24.8652 176.012 24.9303 176.37 25.0117C176.744 25.0931 177.029 25.1663 177.225 25.2314C177.452 25.3128 177.697 25.321 177.957 25.2559C178.185 25.207 178.429 25.1012 178.689 24.9385C178.95 24.7757 179.218 24.4827 179.495 24.0596ZM191.141 24.0596C190.994 24.4176 190.864 24.7432 190.75 25.0361C190.652 25.3291 190.563 25.5895 190.481 25.8174C190.4 26.0778 190.327 26.3057 190.262 26.501C190.197 26.7288 190.123 26.9893 190.042 27.2822C189.961 27.5426 189.855 27.8682 189.725 28.2588C189.611 28.6331 189.472 29.0807 189.31 29.6016C189.179 28.8203 188.943 28.2018 188.602 27.7461C188.26 27.2741 187.91 26.9079 187.552 26.6475C187.129 26.3545 186.673 26.1429 186.185 26.0127C185.306 25.8662 184.671 25.8825 184.28 26.0615C183.89 26.2406 183.629 26.4684 183.499 26.7451C183.434 26.859 183.361 27.0055 183.279 27.1846C183.214 27.3473 183.157 27.5182 183.108 27.6973C183.076 27.8763 183.068 28.0553 183.084 28.2344C183.1 28.4134 183.174 28.5599 183.304 28.6738C183.385 28.7552 183.597 28.8691 183.938 29.0156C184.28 29.1458 184.687 29.3005 185.159 29.4795C185.647 29.6423 186.16 29.8213 186.697 30.0166C187.251 30.2119 187.771 30.4072 188.26 30.6025C188.748 30.7979 189.171 30.9932 189.529 31.1885C189.887 31.3838 190.123 31.5628 190.237 31.7256C190.335 31.8883 190.441 32.1081 190.555 32.3848C190.685 32.6452 190.774 32.9382 190.823 33.2637C190.888 33.5729 190.905 33.8984 190.872 34.2402C190.856 34.5658 190.766 34.8913 190.604 35.2168C190.441 35.5423 190.18 35.8434 189.822 36.1201C189.48 36.3968 189.017 36.6247 188.431 36.8037C187.747 37.0153 187.088 37.0723 186.453 36.9746C185.818 36.877 185.232 36.7305 184.695 36.5352C184.174 36.3398 183.719 36.1527 183.328 35.9736C182.938 35.7783 182.661 35.6969 182.498 35.7295C182.319 35.762 182.116 35.8516 181.888 35.998C181.66 36.1445 181.44 36.2992 181.229 36.4619C181.033 36.6084 180.862 36.7467 180.716 36.877C180.569 36.9909 180.496 37.0316 180.496 36.999C180.496 36.9665 180.521 36.8688 180.569 36.7061C180.634 36.5433 180.7 36.348 180.765 36.1201C180.846 35.876 180.919 35.6156 180.984 35.3389C181.066 35.0459 181.123 34.7692 181.155 34.5088C181.188 34.2972 181.229 34.0368 181.277 33.7275C181.31 33.4508 181.351 33.1172 181.399 32.7266C181.465 32.3197 181.538 31.8314 181.619 31.2617C181.701 31.6849 181.814 32.0511 181.961 32.3604C182.124 32.6696 182.278 32.9382 182.425 33.166C182.604 33.4264 182.775 33.6462 182.938 33.8252C183.182 34.0531 183.466 34.2646 183.792 34.46C184.134 34.6553 184.476 34.8262 184.817 34.9727C185.159 35.1029 185.485 35.1842 185.794 35.2168C186.103 35.2493 186.364 35.2168 186.575 35.1191C186.787 35.0215 186.966 34.8424 187.112 34.582C187.275 34.3216 187.389 34.0368 187.454 33.7275C187.519 33.4183 187.544 33.1253 187.527 32.8486C187.511 32.5557 187.438 32.3197 187.308 32.1406C187.21 32.0267 186.982 31.8802 186.624 31.7012C186.282 31.5221 185.867 31.3268 185.379 31.1152C184.907 30.9036 184.402 30.6839 183.865 30.4561C183.344 30.2282 182.848 30.0003 182.376 29.7725C181.92 29.5283 181.538 29.3005 181.229 29.0889C180.936 28.861 180.773 28.6576 180.74 28.4785C180.708 28.2181 180.683 27.9333 180.667 27.624C180.651 27.2985 180.667 26.9811 180.716 26.6719C180.781 26.3464 180.895 26.0371 181.058 25.7441C181.237 25.4512 181.497 25.207 181.839 25.0117C182.067 24.8815 182.368 24.7839 182.742 24.7188C183.117 24.6536 183.532 24.6211 183.987 24.6211C184.443 24.6048 184.915 24.6211 185.403 24.6699C185.892 24.7025 186.355 24.7513 186.795 24.8164C187.251 24.8652 187.658 24.9303 188.016 25.0117C188.39 25.0931 188.675 25.1663 188.87 25.2314C189.098 25.3128 189.342 25.321 189.603 25.2559C189.83 25.207 190.075 25.1012 190.335 24.9385C190.595 24.7757 190.864 24.4827 191.141 24.0596Z" fill="black"/>
</svg>
